<svg id="af3ed7ca-57e9-43f8-9e10-655fdc34985e" data-name="Layer 1" xmlns="http://www.w3.org/2000/svg" viewBox="0 0 79.01 86"><path d="M.5.5h27a0,0,0,0,1,0,0v85a0,0,0,0,1,0,0h0a27,27,0,0,1-27-27V.5A0,0,0,0,1,.5.5Z" stroke="#fff" stroke-miterlimit="10"/><path d="M48.17,92.5H85.94a2.5,2.5,0,0,0,2.11-3.84L69.56,59.72a2.5,2.5,0,0,0-4.18,0L46.09,88.62A2.49,2.49,0,0,0,48.17,92.5Z" transform="translate(-11 -7)" stroke="#fff" stroke-miterlimit="10"/><path d="M43.5,78.5v-47h0a53.9,53.9,0,0,1,44.84-24h0a1.15,1.15,0,0,1,1,1.79C82,20.32,43.5,78.5,43.5,78.5Z" transform="translate(-11 -7)" fill="#fff" stroke="#000" stroke-miterlimit="10"/></svg>